<svg version="1.1" xmlns="http://www.w3.org/2000/svg" viewBox="0 0 781.3333435058594 498.0001305175781" width="781.3333435058594" height="498.0001305175781" filter="invert(93%) hue-rotate(180deg)" class="excalidraw-svg">
  <!-- svg-source:excalidraw -->
  
  <defs>
    <style class="style-fonts">
      @font-face {
        font-family: "Virgil";
        src: url("https://excalidraw.com/Virgil.woff2");
      }
      @font-face {
        font-family: "Cascadia";
        src: url("https://excalidraw.com/Cascadia.woff2");
      }
      @font-face {
        font-family: "Assistant";
        src: url("https://excalidraw.com/Assistant-Regular.woff2");
      }
    </style>
    
  </defs>
  <rect x="0" y="0" width="781.3333435058594" height="498.0001305175781" fill="#ffffff"/><g transform="translate(10 98.66665649414062) rotate(0 380.6666717529297 35.00001525878906)" stroke="none"><path fill="#1e1e1e" d="M -1.61,-2.67 Q -1.61,-2.67 6.66,-7.59 14.93,-12.52 20.98,-15.95 27.03,-19.39 48.00,-27.44 68.97,-35.48 88.39,-42.13 107.81,-48.78 130.28,-55.44 152.75,-62.10 174.79,-67.80 196.82,-73.51 214.24,-77.65 231.66,-81.80 244.47,-84.33 257.28,-86.87 267.40,-88.15 277.51,-89.42 284.13,-89.96 290.75,-90.50 293.94,-90.93 297.12,-91.35 300.64,-89.63 304.16,-87.91 304.03,-83.89 303.91,-79.87 302.17,-76.15 300.44,-72.42 295.29,-64.97 290.14,-57.52 286.58,-52.88 283.02,-48.25 273.88,-34.33 264.74,-20.41 257.99,-8.61 251.23,3.18 243.02,21.89 234.81,40.59 229.43,61.42 224.06,82.24 221.56,95.13 219.06,108.01 218.00,117.24 216.93,126.48 217.43,134.05 217.93,141.61 218.72,145.52 219.50,149.44 221.23,151.62 222.96,153.81 226.00,153.29 229.04,152.78 232.13,151.45 235.22,150.12 246.00,143.95 256.77,137.79 266.46,132.29 276.14,126.79 295.22,115.85 314.31,104.92 327.04,97.80 339.78,90.68 360.97,79.98 382.16,69.27 394.61,63.21 407.07,57.14 423.76,50.51 440.45,43.88 453.94,39.71 467.42,35.53 476.08,33.56 484.74,31.59 489.60,30.76 494.46,29.92 498.29,30.92 502.12,31.91 500.42,36.41 498.72,40.91 490.39,46.01 482.07,51.12 474.72,54.69 467.38,58.27 448.67,65.90 429.96,73.53 418.76,77.89 407.57,82.24 383.99,90.80 360.42,99.35 342.77,106.21 325.13,113.07 308.73,121.48 292.34,129.89 285.19,134.02 278.04,138.15 275.62,140.38 273.20,142.61 280.36,145.60 287.53,148.60 299.52,150.44 311.51,152.29 330.78,153.12 350.05,153.95 377.41,153.74 404.76,153.54 428.44,152.51 452.13,151.47 495.34,148.55 538.55,145.63 563.28,144.39 588.01,143.15 625.54,141.48 663.07,139.81 690.95,139.48 718.82,139.16 731.05,139.21 743.29,139.27 748.60,139.61 753.91,139.95 755.73,141.18 757.55,142.42 757.82,144.79 758.09,147.16 756.21,149.34 754.33,151.52 750.93,154.32 747.54,157.12 746.93,157.42 746.32,157.72 745.64,157.81 744.97,157.90 744.30,157.77 743.63,157.64 743.03,157.31 742.44,156.97 741.99,156.46 741.53,155.95 741.26,155.32 741.00,154.70 740.94,154.02 740.89,153.34 741.05,152.68 741.22,152.02 741.59,151.44 741.96,150.87 742.49,150.44 743.02,150.02 743.66,149.78 744.30,149.55 744.99,149.53 745.67,149.51 746.32,149.72 746.97,149.92 747.52,150.32 748.08,150.72 748.47,151.27 748.87,151.83 749.07,152.48 749.27,153.13 749.25,153.81 749.23,154.49 748.99,155.13 748.75,155.77 748.32,156.30 747.90,156.83 747.32,157.20 746.75,157.57 746.08,157.73 745.42,157.89 744.74,157.83 744.06,157.78 743.44,157.51 742.81,157.24 742.30,156.78 741.80,156.32 741.46,155.73 741.13,155.13 741.00,154.46 740.87,153.79 740.97,153.12 741.06,152.44 741.37,151.83 741.67,151.22 742.15,150.74 742.64,150.26 742.64,150.26 742.64,150.26 744.64,149.04 746.63,147.82 749.63,146.29 752.63,144.75 747.95,144.66 743.27,144.57 731.08,144.53 718.89,144.48 691.10,144.82 663.31,145.15 625.80,146.84 588.28,148.53 563.60,149.79 538.92,151.06 495.65,154.02 452.37,156.98 428.59,158.06 404.81,159.15 377.31,159.41 349.82,159.68 330.22,158.91 310.63,158.14 297.92,156.22 285.21,154.31 277.22,150.66 269.24,147.00 268.93,143.86 268.62,140.73 271.94,137.10 275.27,133.47 282.54,129.23 289.81,124.99 306.45,116.41 323.08,107.84 340.76,100.89 358.45,93.94 381.91,85.33 405.38,76.71 416.48,72.25 427.59,67.80 446.01,60.10 464.42,52.40 471.38,48.77 478.34,45.14 486.86,40.16 495.37,35.19 490.66,36.02 485.94,36.85 477.49,38.79 469.03,40.73 455.76,44.86 442.49,49.00 426.01,55.59 409.53,62.18 397.14,68.28 384.75,74.39 363.72,85.12 342.69,95.84 330.05,103.05 317.40,110.27 298.41,121.35 279.42,132.42 269.87,138.12 260.32,143.82 249.30,150.47 238.28,157.12 234.26,158.89 230.25,160.66 225.85,160.97 221.45,161.28 219.66,160.12 217.86,158.95 216.57,157.15 215.29,155.35 214.72,152.92 214.16,150.48 213.35,146.22 212.55,141.97 212.04,133.92 211.52,125.88 212.58,116.42 213.64,106.97 216.13,93.91 218.62,80.84 224.07,59.57 229.53,38.30 237.79,19.28 246.05,0.26 252.80,-11.76 259.54,-23.78 268.64,-37.96 277.74,-52.13 281.01,-56.78 284.28,-61.43 288.90,-68.61 293.51,-75.79 295.50,-80.54 297.49,-85.30 294.34,-85.26 291.18,-85.23 284.68,-84.69 278.18,-84.16 268.25,-82.90 258.32,-81.64 245.61,-79.11 232.91,-76.59 215.54,-72.43 198.18,-68.28 176.24,-62.57 154.31,-56.87 131.96,-50.21 109.60,-43.55 90.30,-36.89 70.99,-30.23 50.45,-22.30 29.91,-14.38 23.97,-10.89 18.02,-7.40 9.82,-2.36 1.61,2.67 1.27,2.82 0.92,2.98 0.55,3.05 0.18,3.11 -0.18,3.09 -0.56,3.07 -0.92,2.96 -1.28,2.84 -1.60,2.65 -1.92,2.45 -2.19,2.19 -2.45,1.92 -2.65,1.60 -2.84,1.28 -2.96,0.92 -3.07,0.56 -3.09,0.18 -3.11,-0.18 -3.05,-0.55 -2.98,-0.92 -2.82,-1.27 -2.67,-1.61 -2.44,-1.91 -2.20,-2.20 -1.91,-2.44 -1.61,-2.67 -1.61,-2.67 L -1.61,-2.67 Z"/></g><g transform="translate(432.0000305175781 362.6666564941406) rotate(0 0.00005000000000165983 0.00005000000000165983)" stroke="none"><path fill="#1e1e1e" d="M 3.14,-3.14 Q 3.14,-3.14 3.55,-2.55 3.97,-1.97 4.18,-1.28 4.40,-0.59 4.38,0.11 4.36,0.83 4.11,1.51 3.86,2.18 3.41,2.74 2.96,3.30 2.36,3.69 1.75,4.07 1.05,4.25 0.36,4.42 -0.35,4.36 -1.07,4.30 -1.73,4.02 -2.39,3.74 -2.92,3.26 -3.46,2.78 -3.81,2.15 -4.16,1.53 -4.30,0.82 -4.43,0.11 -4.34,-0.59 -4.24,-1.30 -3.92,-1.94 -3.60,-2.59 -3.09,-3.09 -2.59,-3.60 -1.94,-3.92 -1.30,-4.24 -0.59,-4.34 0.12,-4.43 0.82,-4.30 1.53,-4.16 2.15,-3.81 2.78,-3.46 3.26,-2.92 3.74,-2.39 4.02,-1.73 4.31,-1.07 4.36,-0.35 4.42,0.36 4.25,1.05 4.07,1.75 3.69,2.36 3.30,2.96 2.74,3.41 2.18,3.86 1.51,4.11 0.83,4.36 0.11,4.38 -0.60,4.40 -1.28,4.18 -1.97,3.97 -2.55,3.55 -3.14,3.13 -3.14,3.14 -3.14,3.14 -3.47,2.71 -3.80,2.29 -4.02,1.80 -4.24,1.32 -4.33,0.79 -4.43,0.26 -4.40,-0.26 -4.36,-0.80 -4.20,-1.31 -4.04,-1.82 -3.77,-2.28 -3.49,-2.73 -3.11,-3.11 -2.73,-3.49 -2.28,-3.77 -1.82,-4.05 -1.31,-4.20 -0.80,-4.36 -0.26,-4.40 0.26,-4.43 0.79,-4.33 1.32,-4.24 1.80,-4.02 2.29,-3.80 2.71,-3.47 3.14,-3.14 3.14,-3.14 L 3.14,-3.14 Z"/></g><g transform="translate(250.66665649414062 488.0000305175781) rotate(0 0.00005000000000165983 0.00004999999998744897)" stroke="none"><path fill="#1e1e1e" d="M 3.14,-3.14 Q 3.14,-3.14 3.55,-2.55 3.97,-1.97 4.18,-1.28 4.40,-0.59 4.38,0.11 4.36,0.83 4.11,1.51 3.86,2.18 3.41,2.74 2.96,3.30 2.36,3.69 1.75,4.07 1.05,4.25 0.36,4.42 -0.35,4.36 -1.07,4.30 -1.73,4.02 -2.39,3.74 -2.92,3.26 -3.46,2.78 -3.81,2.15 -4.16,1.53 -4.30,0.82 -4.43,0.11 -4.34,-0.59 -4.24,-1.30 -3.92,-1.94 -3.60,-2.59 -3.09,-3.09 -2.59,-3.60 -1.94,-3.92 -1.30,-4.24 -0.59,-4.34 0.12,-4.43 0.82,-4.30 1.53,-4.16 2.15,-3.81 2.78,-3.46 3.26,-2.92 3.74,-2.39 4.02,-1.73 4.31,-1.07 4.36,-0.35 4.42,0.36 4.25,1.05 4.07,1.75 3.69,2.36 3.30,2.96 2.74,3.41 2.18,3.86 1.51,4.11 0.83,4.36 0.11,4.38 -0.60,4.40 -1.28,4.18 -1.97,3.97 -2.55,3.55 -3.14,3.13 -3.14,3.14 -3.14,3.14 -3.47,2.71 -3.80,2.29 -4.02,1.80 -4.24,1.32 -4.33,0.79 -4.43,0.26 -4.40,-0.26 -4.36,-0.80 -4.20,-1.31 -4.04,-1.82 -3.77,-2.28 -3.49,-2.73 -3.11,-3.11 -2.73,-3.49 -2.28,-3.77 -1.82,-4.05 -1.31,-4.20 -0.80,-4.36 -0.26,-4.40 0.26,-4.43 0.79,-4.33 1.32,-4.24 1.80,-4.02 2.29,-3.80 2.71,-3.47 3.14,-3.14 3.14,-3.14 L 3.14,-3.14 Z"/></g></svg>