<svg version="1.1" xmlns="http://www.w3.org/2000/svg" viewBox="0 0 585.5999755859375 551.9999847412109" width="585.5999755859375" height="551.9999847412109" filter="invert(93%) hue-rotate(180deg)" class="excalidraw-svg">
  <!-- svg-source:excalidraw -->
  
  <defs>
    <style class="style-fonts">
      @font-face {
        font-family: "Virgil";
        src: url("https://excalidraw.com/Virgil.woff2");
      }
      @font-face {
        font-family: "Cascadia";
        src: url("https://excalidraw.com/Cascadia.woff2");
      }
      @font-face {
        font-family: "Assistant";
        src: url("https://excalidraw.com/Assistant-Regular.woff2");
      }
    </style>
    
  </defs>
  <rect x="0" y="0" width="585.5999755859375" height="551.9999847412109" fill="#ffffff"/><g transform="translate(10 10) rotate(0 282.79998779296875 265.99999237060547)" stroke="none"><path fill="#1e1e1e" d="M 0.70,-3.04 Q 0.70,-3.04 6.66,-1.59 12.63,-0.15 16.72,0.69 20.82,1.54 25.16,2.63 29.51,3.72 35.94,5.33 42.36,6.95 54.69,9.48 67.02,12.00 81.28,15.16 95.53,18.32 109.84,21.27 124.15,24.22 139.62,26.85 155.10,29.48 167.21,31.52 179.32,33.56 204.99,38.81 230.65,44.06 250.07,48.36 269.49,52.67 289.04,57.49 308.58,62.32 328.16,67.36 347.73,72.40 366.23,78.24 384.74,84.08 395.36,87.71 405.99,91.35 417.73,96.61 429.48,101.88 438.20,106.68 446.92,111.47 454.88,117.51 462.85,123.54 468.15,128.95 473.46,134.37 476.99,140.09 480.52,145.81 482.56,157.08 484.60,168.35 484.04,177.85 483.48,187.36 482.05,194.22 480.63,201.08 476.74,210.36 472.85,219.64 470.54,225.10 468.23,230.56 465.35,235.76 462.46,240.97 453.13,253.84 443.79,266.71 434.96,276.82 426.12,286.92 416.82,296.30 407.52,305.67 401.27,311.72 395.03,317.77 377.74,330.12 360.45,342.47 344.14,352.76 327.82,363.06 315.35,370.20 302.87,377.35 295.98,381.30 289.09,385.24 275.27,392.02 261.46,398.79 250.33,404.19 239.19,409.59 232.87,412.79 226.55,415.99 221.17,419.16 215.79,422.32 212.12,424.59 208.45,426.85 206.79,428.74 205.13,430.64 204.98,432.79 204.84,434.94 217.91,442.65 230.99,450.36 237.04,454.16 243.10,457.97 254.46,463.22 265.82,468.48 280.06,474.21 294.31,479.93 305.87,484.23 317.43,488.53 330.32,492.42 343.22,496.31 355.85,500.06 368.48,503.81 384.41,508.17 400.33,512.52 414.84,515.51 429.36,518.50 452.02,521.38 474.68,524.26 486.42,525.73 498.16,527.19 510.41,527.81 522.67,528.42 528.60,528.69 534.53,528.96 541.34,528.84 548.16,528.73 551.31,528.48 554.45,528.24 556.78,527.39 559.11,526.54 554.95,525.84 550.80,525.14 547.75,524.94 544.71,524.74 540.77,524.76 536.83,524.78 535.70,525.09 534.57,525.40 533.66,525.42 532.75,525.44 531.88,525.17 531.00,524.90 530.27,524.36 529.53,523.83 529.00,523.08 528.47,522.34 528.21,521.47 527.94,520.59 527.97,519.68 528.00,518.77 528.32,517.92 528.64,517.06 529.21,516.35 529.78,515.64 530.56,515.16 531.33,514.67 532.21,514.45 533.10,514.24 534.01,514.31 534.92,514.39 535.75,514.76 536.59,515.12 537.26,515.73 537.94,516.34 538.39,517.14 538.83,517.94 539.00,518.83 539.17,519.73 539.04,520.63 538.91,521.54 538.50,522.35 538.09,523.17 537.45,523.81 536.80,524.45 535.98,524.85 535.16,525.25 534.26,525.37 533.35,525.49 532.46,525.32 531.56,525.14 530.77,524.69 529.98,524.23 529.37,523.55 528.77,522.87 528.41,522.03 528.05,521.19 527.98,520.28 527.91,519.37 528.14,518.49 528.36,517.61 528.86,516.84 529.35,516.07 530.07,515.51 530.78,514.94 531.64,514.63 532.49,514.32 532.49,514.32 532.49,514.32 534.70,514.00 536.91,513.69 539.19,513.74 541.46,513.79 545.10,514.16 548.74,514.52 551.28,514.99 553.81,515.45 556.12,516.22 558.43,516.99 562.01,518.60 565.59,520.21 567.38,523.77 569.17,527.33 568.09,529.19 567.01,531.05 563.92,532.10 560.83,533.16 557.71,533.73 554.59,534.30 551.42,534.16 548.25,534.01 541.27,534.14 534.30,534.26 528.35,534.00 522.40,533.74 509.95,533.12 497.50,532.50 485.75,531.05 474.00,529.61 451.13,526.72 428.26,523.83 413.57,520.83 398.89,517.84 382.89,513.51 366.90,509.19 354.24,505.50 341.57,501.81 328.49,497.95 315.40,494.09 303.72,489.88 292.04,485.67 277.59,480.04 263.13,474.41 251.33,469.18 239.52,463.96 233.28,460.41 227.05,456.86 212.89,448.22 198.73,439.58 197.95,437.28 197.16,434.97 197.66,432.37 198.17,429.77 199.52,427.97 200.86,426.17 203.27,424.28 205.67,422.39 209.40,420.09 213.13,417.79 218.65,414.55 224.18,411.30 230.54,408.08 236.90,404.86 248.02,399.47 259.15,394.08 272.81,387.38 286.48,380.68 293.37,376.74 300.26,372.79 312.64,365.70 325.02,358.61 341.21,348.40 357.40,338.19 374.39,326.09 391.38,313.99 397.59,307.98 403.79,301.97 412.98,292.72 422.17,283.46 430.86,273.54 439.54,263.62 448.71,251.02 457.87,238.41 460.63,233.46 463.39,228.51 465.70,223.05 468.01,217.60 471.75,208.79 475.49,199.99 476.86,193.50 478.23,187.02 478.83,178.12 479.43,169.21 477.71,158.82 475.99,148.42 472.84,143.22 469.68,138.02 464.67,132.87 459.66,127.72 452.02,121.90 444.38,116.08 435.85,111.38 427.32,106.68 415.80,101.50 404.28,96.33 393.72,92.71 383.15,89.10 364.78,83.30 346.42,77.50 326.87,72.47 307.32,67.44 287.83,62.63 268.35,57.82 248.97,53.54 229.59,49.25 204.02,44.02 178.44,38.80 166.32,36.77 154.21,34.73 138.64,32.10 123.07,29.47 108.72,26.53 94.37,23.59 80.15,20.47 65.93,17.35 53.48,14.84 41.03,12.33 34.61,10.77 28.18,9.21 23.94,8.22 19.70,7.23 15.49,6.45 11.28,5.67 5.29,4.35 -0.70,3.04 -1.05,2.91 -1.41,2.78 -1.72,2.58 -2.03,2.37 -2.29,2.09 -2.54,1.81 -2.72,1.48 -2.90,1.15 -3.00,0.78 -3.09,0.42 -3.10,0.04 -3.10,-0.33 -3.02,-0.69 -2.93,-1.06 -2.76,-1.40 -2.59,-1.73 -2.35,-2.02 -2.10,-2.30 -1.80,-2.52 -1.49,-2.74 -1.14,-2.88 -0.79,-3.02 -0.41,-3.07 -0.04,-3.12 0.32,-3.08 0.70,-3.04 0.70,-3.04 L 0.70,-3.04 Z"/></g></svg>