<svg version="1.1" xmlns="http://www.w3.org/2000/svg" viewBox="0 0 430.00006103515625 265.3333740234375" width="430.00006103515625" height="265.3333740234375" class="excalidraw-svg">
  <!-- svg-source:excalidraw -->
  
  <defs>
    <style class="style-fonts">
      @font-face {
        font-family: "Virgil";
        src: url("https://excalidraw.com/Virgil.woff2");
      }
      @font-face {
        font-family: "Cascadia";
        src: url("https://excalidraw.com/Cascadia.woff2");
      }
      @font-face {
        font-family: "Assistant";
        src: url("https://excalidraw.com/Assistant-Regular.woff2");
      }
    </style>
    
  </defs>
  <rect x="0" y="0" width="430.00006103515625" height="265.3333740234375" fill="#ffffff"/><g stroke-linecap="round" transform="translate(10 10) rotate(0 205.00003051757812 122.66668701171875)"><path d="M244.98 1.42 C264.57 1.7, 286.01 8.07, 303.81 14 C321.62 19.92, 337.98 28.08, 351.8 36.98 C365.63 45.88, 377.49 56.55, 386.76 67.4 C396.03 78.24, 403.79 90.22, 407.45 102.04 C411.1 113.86, 411.37 126.63, 408.69 138.32 C406.02 150.02, 399.61 161.4, 391.39 172.21 C383.17 183.02, 372.76 193.86, 359.37 203.18 C345.99 212.5, 328.28 221.62, 311.09 228.15 C293.9 234.69, 275.55 239.53, 256.22 242.39 C236.9 245.25, 215.29 246.16, 195.14 245.31 C174.99 244.47, 154.39 241.3, 135.31 237.32 C116.23 233.33, 96.89 228.66, 80.65 221.41 C64.42 214.17, 49.68 203.82, 37.92 193.86 C26.17 183.91, 16.27 173.14, 10.12 161.67 C3.96 150.19, 1.56 137.18, 0.99 125.03 C0.41 112.88, 1.43 100.16, 6.66 88.76 C11.9 77.37, 21.43 66.64, 32.41 56.65 C43.39 46.65, 57.04 36.56, 72.54 28.8 C88.05 21.05, 106.91 14.64, 125.44 10.1 C143.97 5.56, 160.78 2.32, 183.74 1.56 C206.71 0.8, 247.38 4.11, 263.22 5.53 C279.06 6.96, 279.91 8.36, 278.78 10.11 M244.61 2.28 C264.22 2.56, 286.26 8.9, 304.27 14.59 C322.29 20.28, 339.07 27.68, 352.69 36.42 C366.31 45.16, 377.15 56.42, 385.98 67.03 C394.81 77.64, 401.76 88.39, 405.67 100.07 C409.58 111.75, 411.66 125.01, 409.42 137.1 C407.18 149.2, 400.82 161.39, 392.22 172.66 C383.62 183.93, 371.42 195.87, 357.82 204.75 C344.23 213.63, 327.79 219.59, 310.65 225.95 C293.51 232.3, 274.16 239.5, 254.98 242.86 C235.81 246.22, 215.8 246.81, 195.6 246.12 C175.39 245.44, 153.07 242.95, 133.78 238.74 C114.49 234.54, 95.96 228.33, 79.86 220.91 C63.76 213.48, 48.55 204.14, 37.2 194.18 C25.85 184.22, 18.09 172.44, 11.77 161.16 C5.45 149.88, 0.08 138.29, -0.72 126.5 C-1.52 114.71, 1.52 102.23, 6.96 90.44 C12.41 78.65, 20.72 66.29, 31.96 55.78 C43.19 45.27, 58.87 34.99, 74.36 27.38 C89.85 19.77, 106.59 14.76, 124.91 10.11 C143.24 5.46, 164.28 0.54, 184.3 -0.54 C204.33 -1.62, 235.15 2.52, 245.06 3.63 C254.97 4.74, 244.27 4.06, 243.76 6.1" stroke="#1e1e1e" stroke-width="2" fill="none"/></g></svg>