<svg version="1.1" xmlns="http://www.w3.org/2000/svg" viewBox="0 0 838.540901184082 377.84539794921875" width="838.540901184082" height="377.84539794921875" filter="invert(93%) hue-rotate(180deg)" class="excalidraw-svg">
  <!-- svg-source:excalidraw -->
  
  <defs>
    <style class="style-fonts">
      @font-face {
        font-family: "Virgil";
        src: url("https://excalidraw.com/Virgil.woff2");
      }
      @font-face {
        font-family: "Cascadia";
        src: url("https://excalidraw.com/Cascadia.woff2");
      }
      @font-face {
        font-family: "Assistant";
        src: url("https://excalidraw.com/Assistant-Regular.woff2");
      }
    </style>
    
  </defs>
  <rect x="0" y="0" width="838.540901184082" height="377.84539794921875" fill="#ffffff"/><g transform="translate(10 116.50160217285156) rotate(0 162.79530715942383 -2.1300201416015625)" stroke="none"><path fill="#1e1e1e" d="M 0,-3.32 Q 0,-3.32 3.49,-3.39 6.99,-3.46 13.81,-3.49 20.63,-3.52 27.64,-3.40 34.66,-3.28 38.87,-3.20 43.07,-3.12 54.31,-3.05 65.54,-2.99 74.31,-3.11 83.09,-3.24 87.71,-3.27 92.33,-3.31 108.31,-3.32 124.28,-3.32 137.33,-3.67 150.38,-4.01 167.32,-4.33 184.26,-4.64 193.57,-4.77 202.87,-4.90 212.93,-5.13 223.00,-5.36 232.19,-5.45 241.39,-5.55 246.52,-5.58 251.65,-5.62 257.33,-5.64 263.02,-5.65 268.41,-5.66 273.80,-5.66 278.36,-5.67 282.93,-5.67 285.22,-5.93 287.51,-6.18 289.88,-6.39 292.26,-6.61 294.84,-6.77 297.42,-6.93 299.66,-7.19 301.90,-7.46 304.19,-7.70 306.49,-7.94 309.83,-8.10 313.17,-8.25 315.51,-8.29 317.86,-8.33 320.14,-8.54 322.42,-8.75 323.24,-9.10 324.05,-9.45 324.94,-9.53 325.82,-9.60 326.68,-9.39 327.55,-9.17 328.30,-8.69 329.05,-8.22 329.60,-7.53 330.16,-6.83 330.47,-6.00 330.77,-5.17 330.80,-4.28 330.83,-3.39 330.57,-2.54 330.31,-1.69 329.79,-0.97 329.27,-0.25 328.55,0.26 327.83,0.78 326.98,1.04 326.13,1.31 325.24,1.28 324.35,1.26 323.52,0.95 322.69,0.65 321.99,0.09 321.30,-0.45 320.82,-1.20 320.34,-1.95 320.13,-2.81 319.91,-3.67 319.98,-4.56 320.05,-5.45 320.40,-6.26 320.75,-7.08 321.35,-7.74 321.94,-8.40 322.71,-8.84 323.48,-9.28 324.36,-9.45 325.23,-9.61 326.11,-9.50 326.99,-9.38 327.79,-8.98 328.58,-8.59 329.21,-7.96 329.84,-7.33 330.24,-6.54 330.63,-5.74 330.75,-4.86 330.87,-3.98 330.71,-3.11 330.54,-2.24 330.10,-1.46 329.67,-0.69 329.01,-0.09 328.34,0.49 328.35,0.49 328.35,0.49 323.10,1.37 317.86,2.25 315.51,2.21 313.17,2.17 309.83,2.01 306.49,1.86 304.19,1.62 301.90,1.37 299.66,1.11 297.42,0.84 294.84,0.68 292.26,0.52 289.89,0.31 287.51,0.10 285.22,-0.14 282.93,-0.40 278.37,-0.39 273.81,-0.39 268.42,-0.38 263.04,-0.37 257.37,-0.35 251.69,-0.33 246.57,-0.28 241.45,-0.24 232.28,-0.13 223.12,-0.03 213.03,0.21 202.95,0.45 193.66,0.60 184.37,0.75 167.45,1.09 150.53,1.43 137.41,1.82 124.29,2.20 108.36,2.26 92.42,2.31 87.81,2.43 83.20,2.54 74.37,2.76 65.54,2.99 54.31,3.05 43.07,3.12 38.87,3.20 34.66,3.28 27.64,3.40 20.63,3.52 13.81,3.49 6.99,3.46 3.49,3.39 0,3.32 -0.39,3.28 -0.79,3.23 -1.17,3.08 -1.54,2.94 -1.87,2.71 -2.20,2.49 -2.47,2.19 -2.73,1.89 -2.92,1.53 -3.11,1.18 -3.20,0.79 -3.30,0.40 -3.30,-0.00 -3.30,-0.40 -3.20,-0.79 -3.11,-1.18 -2.92,-1.53 -2.73,-1.89 -2.47,-2.19 -2.20,-2.49 -1.87,-2.71 -1.54,-2.94 -1.17,-3.08 -0.79,-3.23 -0.39,-3.28 0.00,-3.32 0.00,-3.32 L 0,-3.32 Z"/></g><g transform="translate(49.55773162841797 10) rotate(0 -11.563030242919922 31.037612915039062)" stroke="none"><path fill="#1e1e1e" d="M 3.44,3.82 Q 3.44,3.82 1.74,5.40 0.04,6.98 -0.79,8.97 -1.64,10.96 -2.50,13.48 -3.37,16.01 -3.94,18.21 -4.51,20.42 -6.15,25.12 -7.78,29.82 -8.80,32.10 -9.82,34.39 -10.74,36.94 -11.65,39.49 -12.87,42.40 -14.09,45.31 -14.79,48.34 -15.49,51.37 -16.24,55.00 -16.98,58.64 -17.05,60.19 -17.11,61.74 -17.26,62.45 -17.41,63.16 -17.72,63.81 -18.03,64.46 -18.49,65.01 -18.95,65.57 -19.53,66.00 -20.11,66.43 -20.78,66.71 -21.44,66.99 -22.16,67.10 -22.87,67.21 -23.59,67.15 -24.31,67.09 -24.99,66.86 -25.68,66.63 -26.28,66.24 -26.89,65.85 -27.39,65.32 -27.89,64.80 -28.24,64.17 -28.60,63.55 -28.80,62.85 -28.99,62.16 -29.02,61.44 -29.05,60.71 -28.20,57.23 -27.35,53.74 -25.94,48.90 -24.52,44.07 -22.72,39.43 -20.92,34.78 -19.18,31.16 -17.44,27.53 -16.92,26.03 -16.39,24.53 -15.96,23.86 -15.53,23.19 -14.91,22.70 -14.29,22.20 -13.54,21.93 -12.80,21.65 -12.00,21.63 -11.20,21.61 -10.44,21.85 -9.68,22.08 -9.04,22.55 -8.39,23.02 -7.93,23.66 -7.47,24.31 -7.23,25.07 -7.00,25.83 -7.03,26.63 -7.05,27.43 -7.33,28.17 -7.60,28.92 -8.10,29.54 -8.60,30.16 -9.27,30.58 -9.95,31.01 -10.72,31.20 -11.49,31.39 -12.29,31.33 -13.08,31.26 -13.81,30.94 -14.54,30.63 -15.13,30.09 -15.72,29.56 -16.11,28.87 -16.50,28.17 -16.65,27.39 -16.80,26.61 -16.69,25.82 -16.58,25.03 -16.22,24.32 -15.87,23.61 -15.30,23.04 -14.74,22.48 -14.03,22.13 -13.31,21.78 -12.52,21.67 -11.73,21.57 -10.95,21.72 -10.17,21.87 -9.48,22.27 -8.79,22.66 -8.26,23.25 -7.73,23.85 -7.41,24.58 -7.10,25.31 -7.04,26.10 -6.98,26.90 -7.17,27.67 -7.36,28.44 -7.36,28.44 -7.36,28.44 -8.10,29.85 -8.83,31.26 -10.06,34.47 -11.28,37.68 -12.32,42.54 -13.37,47.40 -14.06,50.16 -14.75,52.91 -15.26,55.21 -15.78,57.52 -16.44,59.63 -17.11,61.74 -17.26,62.45 -17.41,63.15 -17.72,63.81 -18.03,64.46 -18.49,65.01 -18.95,65.57 -19.53,66.00 -20.11,66.43 -20.78,66.71 -21.44,66.99 -22.16,67.10 -22.87,67.21 -23.59,67.15 -24.31,67.09 -24.99,66.86 -25.67,66.63 -26.28,66.24 -26.89,65.85 -27.39,65.32 -27.89,64.80 -28.24,64.17 -28.60,63.55 -28.80,62.85 -28.99,62.16 -29.02,61.44 -29.05,60.71 -28.86,59.58 -28.68,58.45 -27.99,55.68 -27.31,52.92 -26.43,49.62 -25.54,46.32 -24.79,43.85 -24.04,41.39 -23.06,38.72 -22.08,36.06 -21.11,32.91 -20.15,29.77 -19.22,27.69 -18.29,25.62 -16.94,21.61 -15.59,17.59 -14.96,15.05 -14.32,12.51 -13.50,10.19 -12.68,7.88 -11.32,5.68 -9.96,3.48 -8.50,1.40 -7.04,-0.68 -5.24,-2.25 -3.44,-3.82 -2.93,-4.18 -2.42,-4.53 -1.84,-4.76 -1.27,-4.98 -0.65,-5.06 -0.04,-5.14 0.57,-5.07 1.19,-5.00 1.77,-4.78 2.35,-4.57 2.86,-4.22 3.38,-3.87 3.79,-3.41 4.21,-2.95 4.50,-2.40 4.79,-1.86 4.94,-1.26 5.10,-0.65 5.10,-0.03 5.11,0.58 4.96,1.18 4.82,1.78 4.54,2.33 4.25,2.88 3.84,3.35 3.44,3.82 3.44,3.82 L 3.44,3.82 Z"/></g><g transform="translate(46.51483154296875 15.477218627929688) rotate(0 11.867321014404297 31.037612915039062)" stroke="none"><path fill="#1e1e1e" d="M 3.72,-3.44 Q 3.72,-3.44 5.79,-1.13 7.85,1.17 10.44,4.52 13.03,7.88 13.99,10.10 14.95,12.31 16.59,16.51 18.23,20.71 18.69,22.88 19.14,25.04 19.78,28.04 20.42,31.04 21.65,35.94 22.87,40.84 23.64,43.47 24.40,46.10 25.65,49.70 26.90,53.30 27.77,56.07 28.65,58.84 28.78,60.29 28.91,61.74 28.79,62.42 28.67,63.11 28.39,63.75 28.11,64.39 27.68,64.94 27.26,65.49 26.71,65.92 26.16,66.36 25.53,66.65 24.90,66.94 24.21,67.07 23.53,67.20 22.83,67.16 22.13,67.13 21.47,66.92 20.80,66.72 20.20,66.36 19.60,66.01 19.10,65.52 18.61,65.03 18.24,64.43 17.88,63.84 17.67,63.18 17.45,62.51 17.41,61.82 17.36,61.12 17.51,63.16 17.65,65.21 16.85,64.70 16.05,64.20 15.46,63.46 14.87,62.73 14.54,61.84 14.21,60.96 14.18,60.01 14.15,59.07 14.43,58.16 14.70,57.26 15.25,56.49 15.80,55.72 16.56,55.17 17.33,54.61 18.23,54.33 19.13,54.05 20.08,54.08 21.02,54.10 21.91,54.42 22.80,54.74 23.54,55.33 24.28,55.92 24.79,56.72 25.30,57.51 25.53,58.43 25.76,59.34 25.69,60.29 25.61,61.23 25.24,62.10 24.87,62.97 24.24,63.67 23.61,64.38 22.79,64.84 21.97,65.31 21.04,65.49 20.12,65.67 19.18,65.55 18.24,65.43 17.40,65.01 16.55,64.59 15.88,63.92 15.21,63.26 14.79,62.41 14.36,61.57 14.23,60.63 14.10,59.70 14.28,58.77 14.45,57.84 14.92,57.02 15.38,56.19 16.08,55.56 16.78,54.93 17.65,54.55 18.51,54.17 19.46,54.09 20.40,54.01 21.31,54.24 22.23,54.46 22.23,54.46 22.23,54.46 25.57,58.10 28.91,61.74 28.79,62.42 28.67,63.11 28.39,63.75 28.11,64.39 27.68,64.94 27.26,65.49 26.71,65.92 26.17,66.36 25.53,66.65 24.90,66.94 24.21,67.07 23.53,67.20 22.83,67.16 22.13,67.13 21.47,66.92 20.80,66.72 20.20,66.36 19.60,66.01 19.11,65.52 18.61,65.03 18.24,64.43 17.88,63.84 17.67,63.18 17.45,62.51 17.41,61.82 17.36,61.12 17.56,61.60 17.76,62.07 17.09,59.16 16.42,56.25 15.45,52.67 14.48,49.09 13.56,46.14 12.64,43.18 11.31,38.46 9.99,33.74 8.97,30.35 7.96,26.95 7.21,23.68 6.45,20.41 5.14,16.81 3.84,13.21 2.19,10.57 0.54,7.92 -1.59,5.68 -3.72,3.44 -4.08,2.94 -4.44,2.44 -4.67,1.88 -4.90,1.31 -4.98,0.70 -5.07,0.10 -5.01,-0.50 -4.95,-1.11 -4.74,-1.68 -4.54,-2.26 -4.20,-2.77 -3.86,-3.28 -3.41,-3.70 -2.96,-4.11 -2.43,-4.41 -1.89,-4.70 -1.30,-4.86 -0.71,-5.02 -0.10,-5.03 0.50,-5.04 1.10,-4.91 1.70,-4.78 2.24,-4.50 2.79,-4.23 3.26,-3.83 3.72,-3.44 3.72,-3.44 L 3.72,-3.44 Z"/></g><g transform="translate(26.431671142578125 55.03495788574219) rotate(0 31.037609100341797 -5.477226257324219)" stroke="none"><path fill="#1e1e1e" d="M -1.15,-4.23 Q -1.15,-4.23 2.73,-5.13 6.63,-6.02 12.51,-6.84 18.39,-7.67 22.43,-8.18 26.46,-8.69 30.04,-9.30 33.63,-9.91 36.38,-10.48 39.14,-11.06 42.00,-11.68 44.86,-12.29 48.02,-12.91 51.18,-13.52 53.53,-13.92 55.87,-14.33 57.30,-14.35 58.72,-14.38 59.34,-14.72 59.97,-15.05 60.67,-15.17 61.37,-15.29 62.08,-15.17 62.78,-15.06 63.41,-14.73 64.04,-14.40 64.53,-13.88 65.02,-13.37 65.32,-12.72 65.62,-12.08 65.70,-11.37 65.77,-10.66 65.62,-9.97 65.47,-9.27 65.11,-8.66 64.74,-8.05 64.20,-7.59 63.66,-7.13 63.00,-6.87 62.34,-6.60 61.63,-6.56 60.92,-6.52 60.23,-6.71 59.55,-6.90 58.96,-7.30 58.37,-7.69 57.94,-8.26 57.51,-8.82 57.28,-9.50 57.05,-10.17 57.05,-10.88 57.05,-11.59 57.27,-12.27 57.50,-12.94 57.93,-13.51 58.36,-14.08 58.94,-14.48 59.53,-14.88 60.22,-15.07 60.90,-15.26 61.61,-15.22 62.32,-15.19 62.98,-14.92 63.64,-14.66 64.19,-14.20 64.73,-13.74 65.10,-13.14 65.46,-12.53 65.62,-11.83 65.77,-11.14 65.70,-10.43 65.62,-9.72 65.33,-9.08 65.03,-8.43 64.54,-7.91 64.05,-7.40 64.05,-7.40 64.05,-7.40 58.35,-6.43 52.64,-5.46 49.47,-4.92 46.30,-4.38 43.31,-3.93 40.32,-3.48 37.55,-3.20 34.79,-2.91 31.14,-2.32 27.49,-1.73 23.56,-1.07 19.64,-0.41 14.20,0.70 8.76,1.82 4.96,3.03 1.15,4.23 0.63,4.31 0.10,4.39 -0.41,4.34 -0.94,4.29 -1.44,4.11 -1.94,3.93 -2.38,3.64 -2.83,3.35 -3.19,2.97 -3.55,2.58 -3.81,2.12 -4.06,1.65 -4.20,1.14 -4.34,0.63 -4.36,0.10 -4.37,-0.42 -4.25,-0.93 -4.14,-1.45 -3.91,-1.93 -3.67,-2.40 -3.33,-2.81 -2.99,-3.21 -2.56,-3.52 -2.13,-3.83 -1.64,-4.03 -1.15,-4.23 -1.15,-4.23 L -1.15,-4.23 Z"/></g><g transform="translate(301.5101089477539 223.61178588867188) rotate(0 263.51539611816406 -0.60858154296875)" stroke="none"><path fill="#1e1e1e" d="M -0.20,-3.35 Q -0.20,-3.35 2.57,-3.68 5.36,-4.02 12.61,-4.12 19.85,-4.22 25.87,-4.09 31.88,-3.96 40.74,-3.87 49.59,-3.77 57.03,-3.70 64.47,-3.63 75.32,-3.57 86.18,-3.52 93.07,-3.48 99.96,-3.44 114.42,-3.59 128.88,-3.73 139.24,-3.79 149.60,-3.84 164.85,-3.86 180.11,-3.87 192.89,-3.88 205.67,-3.88 213.55,-3.88 221.43,-3.87 233.53,-3.87 245.63,-3.87 257.94,-3.86 270.26,-3.86 276.54,-3.86 282.82,-3.85 292.67,-3.85 302.51,-3.85 309.32,-3.85 316.13,-3.85 321.30,-3.85 326.47,-3.84 333.91,-3.84 341.36,-3.84 348.55,-3.84 355.73,-3.84 360.19,-3.84 364.64,-3.84 371.12,-3.67 377.60,-3.49 385.77,-3.24 393.93,-2.99 400.53,-2.88 407.13,-2.78 415.53,-2.73 423.93,-2.69 432.57,-2.67 441.22,-2.65 449.26,-2.64 457.31,-2.63 463.71,-2.63 470.10,-2.63 476.67,-2.63 483.24,-2.62 489.53,-2.62 495.82,-2.62 500.42,-2.62 505.01,-2.62 508.89,-2.71 512.77,-2.79 515.55,-3.17 518.32,-3.55 520.49,-4.00 522.66,-4.45 524.31,-4.69 525.96,-4.93 526.57,-4.89 527.18,-4.84 527.75,-4.61 528.32,-4.37 528.78,-3.97 529.24,-3.56 529.55,-3.03 529.86,-2.50 529.98,-1.89 530.11,-1.29 530.03,-0.68 529.95,-0.07 529.69,0.47 529.42,1.03 528.99,1.47 528.56,1.91 528.01,2.18 527.47,2.46 526.86,2.55 526.25,2.64 525.64,2.53 525.04,2.43 524.50,2.13 523.96,1.83 523.55,1.38 523.13,0.93 522.88,0.36 522.63,-0.19 522.58,-0.80 522.52,-1.41 522.66,-2.01 522.80,-2.61 523.13,-3.13 523.45,-3.65 523.93,-4.04 524.40,-4.43 524.98,-4.65 525.55,-4.87 526.17,-4.89 526.78,-4.92 527.37,-4.74 527.96,-4.57 528.46,-4.22 528.97,-3.86 529.33,-3.37 529.69,-2.87 529.88,-2.29 530.07,-1.70 530.06,-1.09 530.05,-0.47 529.84,0.10 529.64,0.68 529.26,1.16 528.88,1.64 528.36,1.98 527.85,2.32 527.25,2.47 526.66,2.63 526.66,2.63 526.66,2.63 525.06,2.69 523.46,2.75 521.08,2.80 518.71,2.85 515.74,2.82 512.77,2.79 508.89,2.70 505.01,2.62 500.42,2.62 495.82,2.62 489.53,2.62 483.24,2.62 476.67,2.62 470.10,2.62 463.70,2.61 457.31,2.61 449.26,2.60 441.20,2.59 432.55,2.57 423.90,2.56 415.47,2.51 407.05,2.47 400.41,2.36 393.77,2.25 385.61,2.00 377.46,1.76 371.05,1.58 364.64,1.41 360.19,1.41 355.73,1.41 348.55,1.41 341.36,1.41 333.91,1.41 326.47,1.41 321.30,1.41 316.13,1.41 309.32,1.41 302.51,1.42 292.67,1.42 282.82,1.42 276.54,1.42 270.26,1.43 257.94,1.43 245.63,1.44 233.53,1.45 221.43,1.46 213.55,1.47 205.67,1.48 192.90,1.51 180.12,1.53 164.88,1.58 149.64,1.63 139.29,1.72 128.95,1.82 114.46,2.02 99.96,2.22 93.07,2.26 86.18,2.31 75.33,2.36 64.47,2.42 57.03,2.49 49.60,2.57 40.75,2.68 31.90,2.79 25.90,2.94 19.90,3.09 12.86,3.20 5.82,3.32 3.01,3.33 0.20,3.35 -0.19,3.32 -0.59,3.30 -0.98,3.18 -1.37,3.06 -1.71,2.85 -2.06,2.64 -2.35,2.36 -2.64,2.07 -2.85,1.73 -3.06,1.38 -3.18,0.99 -3.30,0.61 -3.32,0.20 -3.35,-0.19 -3.28,-0.59 -3.20,-0.99 -3.04,-1.36 -2.87,-1.73 -2.62,-2.05 -2.37,-2.37 -2.06,-2.62 -1.74,-2.87 -1.37,-3.03 -1.00,-3.20 -0.60,-3.27 -0.20,-3.35 -0.20,-3.35 L -0.20,-3.35 Z"/></g><g transform="translate(597.2802810668945 82.42108154296875) rotate(0 -5.172943115234375 34.08052062988281)" stroke="none"><path fill="#1e1e1e" d="M 4.43,0 Q 4.43,0 4.41,3.32 4.38,6.64 4.39,9.81 4.40,12.97 4.31,15.69 4.21,18.42 3.69,22.07 3.17,25.71 2.47,29.68 1.78,33.64 1.18,37.13 0.58,40.63 -0.21,44.12 -1.01,47.62 -1.38,50.08 -1.75,52.55 -2.23,54.81 -2.70,57.08 -3.42,59.66 -4.14,62.23 -4.61,64.78 -5.08,67.33 -5.10,67.80 -5.13,68.27 -5.30,68.88 -5.47,69.48 -5.79,70.03 -6.10,70.58 -6.54,71.03 -6.97,71.49 -7.50,71.82 -8.03,72.16 -8.63,72.36 -9.23,72.56 -9.85,72.62 -10.48,72.67 -11.10,72.57 -11.72,72.47 -12.30,72.23 -12.88,71.98 -13.39,71.60 -13.89,71.23 -14.29,70.74 -14.69,70.25 -14.96,69.69 -15.23,69.12 -15.36,68.50 -15.49,67.89 -15.46,67.26 -15.44,66.63 -15.65,64.47 -15.86,62.32 -15.98,59.05 -16.11,55.79 -15.96,54.87 -15.81,53.95 -15.37,53.13 -14.93,52.30 -14.26,51.66 -13.58,51.02 -12.73,50.62 -11.89,50.23 -10.96,50.13 -10.03,50.03 -9.12,50.23 -8.21,50.43 -7.41,50.91 -6.61,51.39 -6.01,52.10 -5.40,52.81 -5.05,53.68 -4.71,54.54 -4.66,55.48 -4.61,56.41 -4.86,57.31 -5.10,58.21 -5.63,58.98 -6.15,59.75 -6.89,60.32 -7.64,60.88 -8.52,61.18 -9.40,61.48 -10.34,61.48 -11.27,61.48 -12.15,61.18 -13.04,60.88 -13.78,60.32 -14.52,59.76 -15.05,58.98 -15.57,58.21 -15.82,57.31 -16.07,56.41 -16.02,55.48 -15.97,54.55 -15.63,53.68 -15.28,52.82 -14.68,52.11 -14.08,51.39 -13.28,50.91 -12.48,50.43 -11.57,50.23 -10.66,50.03 -9.73,50.13 -8.80,50.23 -7.95,50.62 -7.11,51.01 -6.43,51.65 -5.75,52.30 -5.31,53.12 -4.88,53.94 -4.72,54.86 -4.57,55.78 -4.57,55.78 -4.57,55.78 -4.69,59.02 -4.80,62.26 -4.96,65.27 -5.13,68.27 -5.30,68.88 -5.47,69.48 -5.79,70.03 -6.10,70.58 -6.54,71.03 -6.97,71.49 -7.50,71.82 -8.03,72.16 -8.63,72.36 -9.23,72.56 -9.85,72.62 -10.48,72.67 -11.10,72.57 -11.72,72.47 -12.30,72.23 -12.88,71.98 -13.39,71.60 -13.89,71.23 -14.29,70.74 -14.69,70.25 -14.96,69.69 -15.23,69.12 -15.36,68.50 -15.49,67.89 -15.46,67.26 -15.44,66.63 -15.21,65.84 -14.98,65.05 -14.02,62.26 -13.07,59.47 -11.60,55.16 -10.14,50.85 -9.51,48.34 -8.88,45.83 -8.14,42.56 -7.40,39.29 -6.85,35.92 -6.29,32.56 -5.93,28.61 -5.57,24.67 -5.24,21.23 -4.91,17.80 -4.66,15.38 -4.40,12.97 -4.39,9.81 -4.38,6.64 -4.41,3.32 -4.43,0 -4.36,-0.53 -4.30,-1.06 -4.11,-1.56 -3.92,-2.06 -3.62,-2.50 -3.31,-2.93 -2.91,-3.29 -2.51,-3.64 -2.04,-3.89 -1.57,-4.14 -1.05,-4.27 -0.53,-4.40 0.00,-4.40 0.53,-4.40 1.05,-4.27 1.57,-4.14 2.04,-3.89 2.51,-3.64 2.91,-3.29 3.31,-2.93 3.62,-2.49 3.92,-2.05 4.11,-1.56 4.30,-1.06 4.36,-0.53 4.43,0.00 4.43,0.00 L 4.43,0 Z"/></g><g transform="translate(586.325813293457 84.85540771484375) rotate(0 4.86865234375 29.820457458496094)" stroke="none"><path fill="#1e1e1e" d="M -1.80,-4.70 Q -1.80,-4.70 0.45,-5.62 2.71,-6.53 6.12,-7.30 9.53,-8.06 12.37,-8.58 15.20,-9.10 17.61,-9.53 20.02,-9.97 25.11,-10.40 30.21,-10.83 33.25,-11.15 36.30,-11.47 39.57,-10.43 42.83,-9.39 44.54,-6.81 46.26,-4.24 47.88,-0.84 49.50,2.55 49.36,6.81 49.21,11.07 44.35,16.28 39.49,21.49 37.14,23.18 34.79,24.87 32.16,26.21 29.54,27.55 24.68,29.42 19.82,31.28 16.93,32.89 14.03,34.49 13.61,30.29 13.18,26.08 16.20,26.29 19.23,26.50 21.26,27.12 23.30,27.74 25.30,28.60 27.30,29.47 29.86,31.63 32.43,33.79 33.65,36.44 34.86,39.09 35.85,41.15 36.83,43.21 38.06,46.07 39.29,48.93 39.83,51.96 40.36,54.98 39.58,57.77 38.81,60.55 36.68,62.63 34.55,64.71 30.40,66.82 26.25,68.94 24.20,69.50 22.14,70.07 17.70,70.81 13.26,71.55 9.39,71.46 5.52,71.36 3.26,71.43 1.01,71.49 -1.91,71.44 -4.83,71.38 -9.32,70.83 -13.81,70.29 -17.15,69.97 -20.49,69.66 -24.14,69.25 -27.80,68.84 -30.14,68.68 -32.48,68.51 -33.06,68.41 -33.65,68.30 -34.18,68.06 -34.72,67.81 -35.19,67.45 -35.65,67.08 -36.02,66.62 -36.38,66.15 -36.62,65.61 -36.86,65.07 -36.97,64.49 -37.07,63.91 -37.04,63.32 -37.00,62.73 -36.82,62.16 -36.65,61.60 -36.34,61.09 -36.03,60.59 -35.61,60.17 -35.20,59.75 -34.69,59.45 -34.18,59.15 -33.62,58.97 -33.05,58.80 -32.46,58.76 -31.87,58.73 -29.48,57.60 -27.09,56.46 -26.27,56.49 -25.45,56.51 -24.68,56.80 -23.91,57.08 -23.27,57.60 -22.63,58.12 -22.19,58.81 -21.75,59.50 -21.55,60.30 -21.36,61.10 -21.43,61.91 -21.49,62.73 -21.82,63.49 -22.15,64.24 -22.70,64.85 -23.25,65.46 -23.96,65.86 -24.68,66.26 -25.49,66.42 -26.29,66.57 -27.11,66.46 -27.92,66.34 -28.65,65.98 -29.39,65.61 -29.97,65.03 -30.55,64.45 -30.91,63.71 -31.27,62.97 -31.38,62.16 -31.49,61.34 -31.33,60.54 -31.18,59.73 -30.77,59.02 -30.36,58.30 -29.75,57.76 -29.14,57.21 -28.38,56.89 -27.63,56.57 -26.81,56.50 -25.99,56.44 -25.19,56.64 -24.40,56.84 -23.71,57.28 -23.02,57.73 -22.50,58.37 -21.99,59.01 -21.71,59.78 -21.43,60.55 -21.41,61.37 -21.39,62.19 -21.63,62.98 -21.88,63.76 -22.36,64.43 -22.84,65.09 -23.51,65.57 -24.17,66.05 -24.96,66.29 -25.75,66.53 -25.75,66.53 -25.74,66.53 -26.98,66.25 -28.22,65.98 -30.35,67.25 -32.48,68.51 -33.06,68.41 -33.65,68.30 -34.18,68.06 -34.72,67.81 -35.19,67.45 -35.65,67.08 -36.02,66.62 -36.38,66.15 -36.62,65.61 -36.86,65.07 -36.97,64.49 -37.07,63.91 -37.04,63.32 -37.00,62.73 -36.82,62.16 -36.65,61.60 -36.34,61.10 -36.03,60.59 -35.62,60.17 -35.20,59.76 -34.69,59.45 -34.18,59.15 -33.62,58.97 -33.05,58.80 -32.46,58.76 -31.87,58.73 -29.49,59.25 -27.10,59.78 -23.44,59.93 -19.77,60.07 -16.60,60.25 -13.44,60.42 -9.19,60.20 -4.94,59.98 -2.12,59.88 0.68,59.77 2.86,59.71 5.05,59.65 8.33,59.26 11.62,58.88 15.10,58.14 18.58,57.41 21.52,56.72 24.45,56.02 25.50,53.92 26.55,51.82 25.09,48.82 23.63,45.82 22.58,43.16 21.53,40.50 19.31,39.61 17.09,38.72 14.67,37.79 12.24,36.85 10.44,35.65 8.63,34.44 7.38,31.93 6.14,29.42 8.81,26.45 11.48,23.48 13.77,22.38 16.06,21.28 20.35,19.52 24.63,17.75 28.30,15.62 31.97,13.48 34.71,9.00 37.46,4.53 37.07,1.98 36.68,-0.56 33.84,-0.59 30.99,-0.61 26.31,-0.23 21.64,0.14 19.30,0.46 16.96,0.79 14.39,1.23 11.82,1.67 9.10,2.35 6.38,3.03 4.09,3.87 1.80,4.70 1.22,4.85 0.63,5.00 0.02,5.00 -0.58,5.00 -1.17,4.86 -1.76,4.72 -2.30,4.44 -2.84,4.16 -3.30,3.76 -3.75,3.36 -4.10,2.86 -4.45,2.36 -4.67,1.79 -4.88,1.22 -4.96,0.62 -5.04,0.02 -4.97,-0.58 -4.90,-1.18 -4.68,-1.75 -4.47,-2.32 -4.13,-2.82 -3.78,-3.32 -3.33,-3.73 -2.88,-4.13 -2.34,-4.42 -1.80,-4.70 -1.80,-4.70 L -1.80,-4.70 Z"/></g><g transform="translate(242.47779083251953 224.82894897460938) rotate(0 44.73066711425781 -2.738616943359375)" stroke="none"><path fill="#1e1e1e" d="M -1.19,-5.15 Q -1.19,-5.15 1.07,-5.71 3.34,-6.27 6.50,-7.01 9.66,-7.75 11.77,-8.36 13.88,-8.97 16.72,-9.30 19.56,-9.63 22.95,-10.09 26.35,-10.54 28.74,-10.65 31.13,-10.77 33.56,-10.79 35.98,-10.81 38.23,-10.82 40.48,-10.84 42.66,-10.84 44.85,-10.85 47.35,-10.81 49.85,-10.78 53.03,-11.08 56.21,-11.38 58.47,-11.55 60.73,-11.72 64.08,-11.84 67.42,-11.96 70.27,-11.99 73.11,-12.02 75.52,-12.07 77.93,-12.11 80.44,-12.14 82.94,-12.18 86.08,-12.20 89.21,-12.21 90.29,-12.04 91.37,-11.86 92.33,-11.35 93.30,-10.84 94.05,-10.05 94.80,-9.26 95.25,-8.27 95.71,-7.28 95.83,-6.19 95.95,-5.11 95.71,-4.04 95.48,-2.98 94.92,-2.04 94.35,-1.11 93.52,-0.40 92.69,0.30 91.68,0.70 90.66,1.10 89.57,1.16 88.49,1.22 87.43,0.93 86.38,0.64 85.48,0.02 84.58,-0.58 83.92,-1.45 83.26,-2.31 82.91,-3.35 82.56,-4.38 82.56,-5.47 82.56,-6.56 82.91,-7.60 83.26,-8.63 83.92,-9.50 84.58,-10.37 85.48,-10.98 86.38,-11.59 87.44,-11.88 88.49,-12.18 89.58,-12.12 90.67,-12.06 91.68,-11.65 92.69,-11.25 93.52,-10.54 94.35,-9.84 94.92,-8.90 95.48,-7.97 95.71,-6.90 95.95,-5.84 95.83,-4.75 95.71,-3.67 95.25,-2.68 94.79,-1.69 94.04,-0.90 93.29,-0.10 92.33,0.40 91.37,0.91 90.29,1.08 89.21,1.26 89.21,1.26 89.21,1.26 87.43,1.25 85.64,1.24 83.17,1.21 80.71,1.18 78.11,1.15 75.51,1.11 72.73,1.08 69.94,1.05 67.37,1.00 64.79,0.95 61.83,0.82 58.87,0.69 56.72,0.69 54.58,0.69 52.22,0.87 49.87,1.05 47.38,1.09 44.89,1.13 42.74,1.15 40.59,1.16 38.41,1.19 36.22,1.21 31.97,1.39 27.71,1.57 25.55,1.84 23.38,2.11 19.86,2.31 16.34,2.50 13.83,2.94 11.33,3.38 8.54,3.77 5.75,4.17 3.47,4.66 1.19,5.15 0.55,5.22 -0.07,5.29 -0.71,5.20 -1.34,5.11 -1.93,4.88 -2.52,4.64 -3.04,4.27 -3.56,3.90 -3.98,3.42 -4.39,2.94 -4.68,2.37 -4.97,1.80 -5.11,1.18 -5.26,0.55 -5.25,-0.07 -5.24,-0.71 -5.08,-1.33 -4.91,-1.95 -4.61,-2.51 -4.31,-3.07 -3.88,-3.54 -3.44,-4.01 -2.91,-4.36 -2.38,-4.72 -1.78,-4.93 -1.18,-5.15 -1.18,-5.15 L -1.19,-5.15 Z"/></g><g transform="translate(192.5741958618164 45.90625) rotate(0 0 1.82574462890625)" stroke="none"><path fill="#1e1e1e" d="M 4.24,-1.32 Q 4.24,-1.32 4.30,-0.26 4.36,0.80 3.93,1.76 3.49,2.73 2.65,3.39 1.82,4.05 0.77,4.24 -0.26,4.43 -1.28,4.11 -2.29,3.80 -3.04,3.04 -3.80,2.29 -4.11,1.28 -4.43,0.26 -4.24,-0.77 -4.04,-1.82 -3.39,-2.65 -2.73,-3.49 -1.76,-3.93 -0.79,-4.36 0.26,-4.30 1.32,-4.23 2.23,-3.68 3.14,-3.13 3.69,-2.23 L 4.24,-1.32 Z"/></g><g transform="translate(190.13983917236328 84.246826171875) rotate(0 -1.5214385986328125 14.301643371582031)" stroke="none"><path fill="#1e1e1e" d="M 5.04,0 Q 5.04,0 4.72,4.72 4.41,9.44 4.53,11.63 4.64,13.81 4.71,17.26 4.78,20.70 4.14,23.44 3.49,26.18 2.96,27.99 2.43,29.79 2.02,30.59 1.61,31.39 0.96,32.02 0.31,32.65 -0.50,33.04 -1.31,33.43 -2.21,33.53 -3.11,33.64 -3.99,33.46 -4.87,33.27 -5.65,32.82 -6.43,32.36 -7.02,31.68 -7.62,31.00 -7.96,30.16 -8.30,29.32 -8.36,28.42 -8.42,27.52 -8.19,26.65 -7.96,25.78 -7.46,25.02 -6.96,24.27 -6.25,23.72 -5.53,23.16 -4.68,22.86 -3.83,22.57 -2.92,22.56 -2.02,22.55 -1.16,22.83 -0.30,23.11 0.41,23.64 1.14,24.18 1.65,24.92 2.17,25.67 2.42,26.53 2.67,27.40 2.63,28.30 2.59,29.21 2.26,30.05 1.94,30.89 1.36,31.59 0.78,32.28 0.02,32.75 -0.74,33.23 -1.62,33.43 -2.50,33.64 -3.40,33.55 -4.30,33.46 -5.12,33.09 -5.95,32.72 -6.61,32.11 -7.27,31.49 -7.70,30.70 -8.14,29.90 -8.29,29.01 -8.45,28.13 -8.31,27.23 -8.17,26.34 -8.17,26.34 -8.17,26.34 -6.83,22.63 -5.48,18.92 -5.06,16.36 -4.64,13.81 -4.53,11.63 -4.41,9.44 -4.72,4.72 -5.04,0 -4.96,-0.60 -4.89,-1.20 -4.67,-1.77 -4.46,-2.34 -4.11,-2.84 -3.77,-3.34 -3.31,-3.74 -2.86,-4.14 -2.32,-4.43 -1.78,-4.71 -1.19,-4.85 -0.60,-5.00 0.00,-5.00 0.60,-5.00 1.19,-4.85 1.78,-4.71 2.32,-4.43 2.86,-4.14 3.31,-3.74 3.77,-3.34 4.11,-2.84 4.46,-2.34 4.67,-1.77 4.89,-1.20 4.96,-0.60 5.04,0.00 5.04,0.00 L 5.04,0 Z"/></g><g transform="translate(183.44547271728516 148.14779663085938) rotate(0 1.2171630859375 14.605926513671875)" stroke="none"><path fill="#1e1e1e" d="M 5.10,-0.26 Q 5.10,-0.26 5.18,3.05 5.26,6.37 6.00,8.69 6.74,11.01 7.41,13.68 8.07,16.36 8.21,18.52 8.35,20.69 7.55,25.27 6.75,29.85 6.34,30.75 5.93,31.65 5.25,32.37 4.57,33.08 3.70,33.55 2.83,34.01 1.86,34.18 0.89,34.34 -0.08,34.18 -1.05,34.02 -1.93,33.56 -2.80,33.10 -3.48,32.39 -4.16,31.68 -4.58,30.78 -4.99,29.89 -5.10,28.91 -5.21,27.93 -5.00,26.96 -4.79,26.00 -4.29,25.15 -3.78,24.30 -3.03,23.66 -2.28,23.02 -1.36,22.65 -0.45,22.29 0.53,22.23 1.51,22.17 2.46,22.44 3.42,22.70 4.23,23.25 5.05,23.80 5.65,24.58 6.25,25.37 6.57,26.30 6.89,27.24 6.89,28.22 6.89,29.21 6.58,30.15 6.27,31.08 5.67,31.87 5.07,32.66 4.26,33.21 3.44,33.77 2.49,34.03 1.54,34.30 0.56,34.25 -0.42,34.20 -1.33,33.84 -2.25,33.47 -3.01,32.84 -3.76,32.20 -4.27,31.35 -4.78,30.51 -5.00,29.55 -5.21,28.58 -5.11,27.60 -5.00,26.62 -5.00,26.62 -5.00,26.62 -4.25,23.68 -3.50,20.74 -3.15,18.54 -2.81,16.33 -3.29,13.85 -3.77,11.37 -4.17,9.14 -4.56,6.92 -4.83,3.59 -5.10,0.26 -5.06,-0.34 -5.02,-0.96 -4.83,-1.54 -4.64,-2.13 -4.32,-2.66 -4.00,-3.18 -3.56,-3.61 -3.12,-4.05 -2.59,-4.36 -2.06,-4.68 -1.47,-4.86 -0.88,-5.03 -0.26,-5.07 0.34,-5.10 0.95,-4.98 1.56,-4.87 2.12,-4.61 2.68,-4.35 3.16,-3.97 3.64,-3.58 4.02,-3.10 4.39,-2.61 4.64,-2.04 4.89,-1.48 5.00,-0.87 5.10,-0.26 5.10,-0.26 L 5.10,-0.26 Z"/></g><g transform="translate(181.01114654541016 193.79135131835938) rotate(0 -1.2171630859375 13.997344970703125)" stroke="none"><path fill="#1e1e1e" d="M 5.27,0 Q 5.27,0 5.29,2.44 5.31,4.89 5.46,7.15 5.61,9.41 5.78,12.04 5.94,14.67 5.52,17.08 5.10,19.49 4.61,22.22 4.12,24.95 4.00,26.42 3.87,27.89 3.67,28.89 3.46,29.89 2.95,30.77 2.43,31.65 1.67,32.33 0.90,33.00 -0.03,33.39 -0.98,33.78 -1.99,33.85 -3.01,33.91 -4.00,33.66 -4.98,33.40 -5.84,32.84 -6.69,32.27 -7.32,31.47 -7.94,30.67 -8.28,29.71 -8.62,28.74 -8.64,27.72 -8.65,26.70 -8.34,25.73 -8.02,24.76 -7.42,23.94 -6.81,23.12 -5.98,22.54 -5.14,21.95 -4.16,21.67 -3.18,21.38 -2.16,21.42 -1.14,21.47 -0.19,21.83 0.75,22.19 1.54,22.84 2.32,23.49 2.86,24.36 3.40,25.23 3.63,26.22 3.86,27.21 3.77,28.23 3.67,29.24 3.26,30.18 2.84,31.11 2.15,31.86 1.46,32.61 0.56,33.10 -0.32,33.59 -1.33,33.76 -2.33,33.94 -3.34,33.79 -4.35,33.64 -5.26,33.17 -6.16,32.71 -6.87,31.98 -7.58,31.25 -8.03,30.33 -8.47,29.41 -8.59,28.39 -8.71,27.38 -8.71,27.38 -8.71,27.38 -8.11,23.58 -7.50,19.78 -6.72,17.18 -5.94,14.58 -5.78,12.00 -5.61,9.41 -5.46,7.15 -5.31,4.89 -5.29,2.44 -5.27,0 -5.19,-0.63 -5.11,-1.26 -4.89,-1.85 -4.66,-2.44 -4.30,-2.97 -3.94,-3.49 -3.46,-3.91 -2.99,-4.33 -2.43,-4.63 -1.86,-4.92 -1.25,-5.08 -0.63,-5.23 0.00,-5.23 0.63,-5.23 1.25,-5.07 1.86,-4.92 2.43,-4.63 2.99,-4.33 3.46,-3.91 3.94,-3.49 4.30,-2.97 4.66,-2.44 4.89,-1.85 5.11,-1.26 5.19,-0.63 5.27,0.00 5.27,0.00 L 5.27,0 Z"/></g><g transform="translate(175.5339126586914 241.86920166015625) rotate(0 0.30429840087890625 3.6514892578125)" stroke="none"><path fill="#1e1e1e" d="M 4.24,-1.32 Q 4.24,-1.32 4.30,-0.26 4.36,0.80 3.93,1.76 3.49,2.73 2.65,3.39 1.82,4.05 0.77,4.24 -0.26,4.43 -1.28,4.11 -2.29,3.80 -3.04,3.04 -3.80,2.29 -4.11,1.28 -4.43,0.26 -4.24,-0.77 -4.04,-1.82 -3.39,-2.65 -2.73,-3.49 -1.76,-3.93 -0.79,-4.36 0.26,-4.30 1.32,-4.23 2.23,-3.68 3.14,-3.13 3.69,-2.23 L 4.24,-1.32 Z"/></g><g transform="translate(347.1536331176758 36.77754211425781) rotate(0 -1.2171630859375 5.477226257324219)" stroke="none"><path fill="#1e1e1e" d="M 4.83,0.96 Q 4.83,0.96 4.57,2.74 4.32,4.51 3.65,7.71 2.98,10.92 2.75,11.76 2.53,12.60 2.04,13.33 1.56,14.05 0.87,14.59 0.18,15.12 -0.63,15.41 -1.45,15.69 -2.33,15.70 -3.20,15.71 -4.03,15.44 -4.85,15.16 -5.55,14.64 -6.25,14.12 -6.75,13.40 -7.24,12.69 -7.48,11.85 -7.72,11.01 -7.68,10.14 -7.64,9.27 -7.33,8.46 -7.01,7.65 -6.45,6.98 -5.90,6.31 -5.15,5.85 -4.41,5.40 -3.56,5.20 -2.71,5.01 -1.84,5.09 -0.98,5.18 -0.18,5.54 0.60,5.90 1.24,6.49 1.88,7.08 2.29,7.85 2.71,8.62 2.86,9.48 3.00,10.34 2.87,11.20 2.74,12.06 2.34,12.83 1.93,13.61 1.31,14.21 0.68,14.82 -0.10,15.19 -0.89,15.56 -1.75,15.66 -2.62,15.76 -3.47,15.58 -4.32,15.40 -5.07,14.96 -5.83,14.52 -6.39,13.86 -6.96,13.20 -7.29,12.39 -7.62,11.59 -7.68,10.72 -7.73,9.85 -7.73,9.85 -7.73,9.85 -6.72,6.16 -5.71,2.48 -5.27,0.75 -4.83,-0.96 -4.65,-1.53 -4.46,-2.09 -4.14,-2.60 -3.83,-3.10 -3.40,-3.51 -2.97,-3.93 -2.46,-4.23 -1.95,-4.52 -1.38,-4.69 -0.81,-4.86 -0.21,-4.89 0.37,-4.91 0.96,-4.80 1.54,-4.68 2.08,-4.43 2.61,-4.17 3.08,-3.80 3.54,-3.43 3.90,-2.95 4.26,-2.48 4.49,-1.93 4.73,-1.39 4.82,-0.80 4.92,-0.21 4.88,0.37 4.83,0.96 4.83,0.96 L 4.83,0.96 Z"/></g><g transform="translate(344.11072540283203 65.98941040039062) rotate(0 -0.6085662841796875 6.998680114746094)" stroke="none"><path fill="#1e1e1e" d="M 5.05,0 Q 5.05,0 5.12,2.09 5.20,4.19 5.36,6.49 5.52,8.78 4.81,12.41 4.11,16.03 3.59,16.80 3.08,17.56 2.35,18.12 1.61,18.68 0.74,18.97 -0.12,19.27 -1.04,19.27 -1.96,19.27 -2.84,18.98 -3.71,18.69 -4.45,18.13 -5.18,17.58 -5.70,16.82 -6.22,16.05 -6.47,15.17 -6.72,14.28 -6.67,13.36 -6.62,12.44 -6.28,11.58 -5.94,10.73 -5.35,10.02 -4.75,9.32 -3.96,8.84 -3.17,8.36 -2.28,8.16 -1.38,7.96 -0.46,8.06 0.45,8.16 1.28,8.55 2.12,8.93 2.79,9.56 3.46,10.20 3.90,11.01 4.33,11.82 4.48,12.73 4.63,13.64 4.48,14.55 4.34,15.46 3.91,16.27 3.48,17.09 2.81,17.72 2.14,18.36 1.30,18.75 0.47,19.14 -0.44,19.24 -1.35,19.34 -2.25,19.14 -3.15,18.95 -3.94,18.47 -4.73,18.00 -5.33,17.30 -5.93,16.60 -6.27,15.74 -6.62,14.89 -6.67,13.97 -6.72,13.05 -6.47,12.16 -6.23,11.27 -6.23,11.27 -6.23,11.27 -5.87,10.03 -5.52,8.78 -5.36,6.49 -5.20,4.19 -5.12,2.09 -5.05,0 -4.98,-0.60 -4.91,-1.21 -4.69,-1.78 -4.47,-2.35 -4.13,-2.85 -3.78,-3.35 -3.33,-3.75 -2.87,-4.16 -2.33,-4.44 -1.79,-4.73 -1.20,-4.87 -0.60,-5.02 0.00,-5.02 0.61,-5.02 1.20,-4.87 1.79,-4.73 2.33,-4.44 2.87,-4.16 3.33,-3.75 3.78,-3.35 4.13,-2.85 4.47,-2.35 4.69,-1.78 4.91,-1.21 4.98,-0.60 5.05,0.00 5.05,0.00 L 5.05,0 Z"/></g><g transform="translate(339.24210357666016 152.40786743164062) rotate(0 -0.304290771484375 6.0858001708984375)" stroke="none"><path fill="#1e1e1e" d="M 4.96,0 Q 4.96,0 5.04,2.09 5.12,4.19 5.28,6.31 5.44,8.43 5.13,10.80 4.82,13.17 4.46,13.98 4.09,14.80 3.48,15.45 2.88,16.10 2.09,16.53 1.31,16.96 0.43,17.11 -0.44,17.26 -1.32,17.13 -2.20,16.99 -2.99,16.58 -3.78,16.18 -4.40,15.53 -5.02,14.89 -5.40,14.09 -5.79,13.28 -5.89,12.40 -6.00,11.51 -5.82,10.64 -5.63,9.77 -5.18,9.00 -4.73,8.23 -4.06,7.65 -3.38,7.06 -2.56,6.72 -1.73,6.39 -0.85,6.33 0.03,6.27 0.90,6.50 1.76,6.73 2.50,7.22 3.24,7.71 3.79,8.42 4.34,9.12 4.63,9.96 4.92,10.81 4.93,11.70 4.94,12.59 4.67,13.44 4.39,14.28 3.86,15.00 3.33,15.71 2.59,16.22 1.86,16.73 1.01,16.98 0.15,17.22 -0.73,17.19 -1.62,17.15 -2.45,16.83 -3.29,16.50 -3.97,15.93 -4.66,15.36 -5.12,14.61 -5.59,13.85 -5.79,12.98 -5.99,12.11 -5.91,11.22 -5.82,10.33 -5.82,10.34 -5.82,10.34 -5.63,9.39 -5.44,8.43 -5.28,6.31 -5.12,4.19 -5.04,2.09 -4.96,0 -4.89,-0.59 -4.82,-1.18 -4.61,-1.74 -4.40,-2.30 -4.06,-2.80 -3.71,-3.29 -3.27,-3.69 -2.82,-4.08 -2.29,-4.36 -1.76,-4.64 -1.18,-4.79 -0.59,-4.93 0.00,-4.93 0.59,-4.93 1.18,-4.78 1.76,-4.64 2.29,-4.36 2.82,-4.08 3.27,-3.69 3.72,-3.29 4.06,-2.80 4.40,-2.30 4.61,-1.74 4.82,-1.18 4.89,-0.59 4.96,0.00 4.96,0.00 L 4.96,0 Z"/></g><g transform="translate(337.4163589477539 181.6197509765625) rotate(0 0 12.780181884765625)" stroke="none"><path fill="#1e1e1e" d="M 5.30,0 Q 5.30,0 5.35,2.09 5.41,4.19 5.55,6.91 5.69,9.63 5.85,13.00 6.01,16.36 6.14,20.41 6.26,24.45 6.10,25.45 5.93,26.45 5.46,27.35 4.98,28.25 4.25,28.94 3.51,29.64 2.59,30.07 1.67,30.49 0.66,30.60 -0.33,30.71 -1.32,30.49 -2.31,30.27 -3.18,29.75 -4.05,29.23 -4.71,28.46 -5.36,27.68 -5.74,26.74 -6.11,25.80 -6.17,24.79 -6.22,23.78 -5.95,22.80 -5.68,21.82 -5.11,20.98 -4.54,20.14 -3.74,19.53 -2.93,18.92 -1.97,18.59 -1.01,18.27 0.00,18.27 1.01,18.27 1.97,18.60 2.93,18.92 3.74,19.53 4.54,20.15 5.11,20.99 5.68,21.82 5.95,22.80 6.22,23.78 6.17,24.79 6.11,25.80 5.74,26.74 5.36,27.69 4.71,28.46 4.05,29.23 3.18,29.75 2.31,30.28 1.32,30.49 0.33,30.71 -0.67,30.60 -1.67,30.49 -2.59,30.07 -3.51,29.64 -4.25,28.94 -4.98,28.24 -5.46,27.35 -5.93,26.45 -6.10,25.45 -6.26,24.45 -6.26,24.45 -6.26,24.45 -6.14,20.41 -6.01,16.36 -5.85,13.00 -5.69,9.63 -5.55,6.91 -5.41,4.19 -5.35,2.09 -5.30,0 -5.22,-0.63 -5.15,-1.27 -4.92,-1.86 -4.69,-2.46 -4.33,-2.99 -3.97,-3.51 -3.49,-3.94 -3.01,-4.36 -2.44,-4.66 -1.88,-4.96 -1.26,-5.11 -0.63,-5.26 0.00,-5.26 0.63,-5.26 1.26,-5.11 1.88,-4.96 2.44,-4.66 3.01,-4.36 3.49,-3.94 3.97,-3.51 4.33,-2.99 4.69,-2.46 4.92,-1.86 5.15,-1.26 5.23,-0.63 5.30,0.00 5.30,0.00 L 5.30,0 Z"/></g><g transform="translate(328.8962173461914 256.4751281738281) rotate(0 0 5.47723388671875)" stroke="none"><path fill="#1e1e1e" d="M 4.97,0 Q 4.97,0 5.06,1.92 5.15,3.84 5.31,7.30 5.48,10.75 5.33,11.62 5.19,12.50 4.78,13.28 4.36,14.07 3.72,14.68 3.07,15.29 2.27,15.66 1.46,16.03 0.58,16.13 -0.29,16.22 -1.16,16.03 -2.02,15.84 -2.78,15.38 -3.54,14.93 -4.12,14.25 -4.69,13.57 -5.02,12.75 -5.35,11.93 -5.40,11.04 -5.45,10.16 -5.21,9.30 -4.97,8.45 -4.47,7.71 -3.97,6.98 -3.27,6.44 -2.56,5.90 -1.72,5.62 -0.88,5.34 0.00,5.34 0.88,5.34 1.72,5.62 2.56,5.91 3.27,6.44 3.98,6.98 4.47,7.71 4.97,8.45 5.21,9.30 5.45,10.16 5.40,11.04 5.35,11.93 5.02,12.75 4.69,13.58 4.12,14.25 3.54,14.93 2.78,15.39 2.02,15.84 1.16,16.03 0.29,16.22 -0.58,16.13 -1.46,16.03 -2.27,15.66 -3.07,15.29 -3.72,14.68 -4.36,14.07 -4.78,13.28 -5.19,12.50 -5.33,11.62 -5.48,10.75 -5.48,10.75 -5.48,10.75 -5.31,7.30 -5.15,3.84 -5.06,1.92 -4.97,0 -4.90,-0.59 -4.83,-1.19 -4.62,-1.75 -4.40,-2.31 -4.06,-2.80 -3.72,-3.30 -3.27,-3.69 -2.82,-4.09 -2.29,-4.37 -1.76,-4.65 -1.18,-4.79 -0.59,-4.94 0.00,-4.94 0.60,-4.94 1.18,-4.79 1.76,-4.65 2.29,-4.37 2.82,-4.09 3.27,-3.69 3.72,-3.30 4.06,-2.80 4.40,-2.31 4.62,-1.75 4.83,-1.19 4.90,-0.59 4.97,0.00 4.97,0.00 L 4.97,0 Z"/></g><g transform="translate(291.16422271728516 292.9899597167969) rotate(0 -36.51481628417969 31.646209716796875)" stroke="none"><path fill="#1e1e1e" d="M -1.95,4.88 Q -1.95,4.88 -4.57,3.81 -7.18,2.73 -10.33,1.34 -13.47,-0.05 -15.76,-1.01 -18.05,-1.98 -21.50,-3.08 -24.94,-4.19 -27.64,-4.71 -30.33,-5.23 -33.52,-5.01 -36.70,-4.79 -39.24,-3.32 -41.78,-1.85 -44.30,-0.28 -46.83,1.29 -49.66,3.45 -52.50,5.60 -54.93,7.86 -57.35,10.13 -59.30,12.72 -61.25,15.30 -62.35,17.22 -63.45,19.14 -65.08,22.66 -66.70,26.18 -67.13,28.94 -67.56,31.70 -68.03,35.83 -68.50,39.96 -68.30,42.16 -68.10,44.35 -67.28,46.94 -66.47,49.53 -65.54,51.69 -64.60,53.86 -63.17,56.28 -61.74,58.71 -59.81,60.72 -57.88,62.74 -55.91,64.19 -53.93,65.64 -51.51,66.84 -49.09,68.04 -45.54,68.55 -41.99,69.06 -36.88,69.09 -31.77,69.12 -30.86,69.28 -29.95,69.44 -29.14,69.88 -28.33,70.33 -27.70,71.01 -27.08,71.69 -26.70,72.53 -26.32,73.37 -26.23,74.30 -26.15,75.22 -26.36,76.12 -26.57,77.02 -27.05,77.80 -27.54,78.59 -28.25,79.18 -28.97,79.77 -29.83,80.10 -30.69,80.43 -31.62,80.47 -32.54,80.50 -33.43,80.25 -34.32,79.99 -35.07,79.46 -35.83,78.93 -36.38,78.19 -36.93,77.44 -37.22,76.56 -37.50,75.68 -37.49,74.76 -37.48,73.83 -37.17,72.96 -36.86,72.09 -36.29,71.36 -35.72,70.63 -34.95,70.12 -34.18,69.61 -33.29,69.38 -32.39,69.14 -31.47,69.21 -30.55,69.27 -29.69,69.62 -28.84,69.97 -28.14,70.58 -27.44,71.19 -26.98,71.99 -26.51,72.79 -26.32,73.69 -26.14,74.60 -26.25,75.52 -26.36,76.43 -26.76,77.27 -27.16,78.10 -27.81,78.76 -28.45,79.43 -29.27,79.85 -30.10,80.27 -31.01,80.41 -31.92,80.55 -31.92,80.55 -31.92,80.55 -35.35,80.43 -38.78,80.31 -41.27,79.91 -43.77,79.51 -46.19,79.04 -48.61,78.58 -51.15,77.82 -53.68,77.05 -56.66,74.97 -59.63,72.89 -62.03,70.91 -64.42,68.92 -67.01,66.14 -69.60,63.36 -71.39,60.27 -73.19,57.18 -74.08,54.60 -74.97,52.02 -75.98,48.37 -76.99,44.73 -76.96,42.15 -76.93,39.56 -76.97,34.92 -77.01,30.28 -76.45,26.39 -75.88,22.51 -73.75,18.25 -71.63,13.99 -70.25,11.97 -68.87,9.95 -66.64,6.57 -64.40,3.20 -61.91,0.49 -59.42,-2.21 -56.47,-5.18 -53.51,-8.15 -49.07,-11.21 -44.63,-14.28 -41.74,-15.58 -38.86,-16.89 -34.51,-17.05 -30.17,-17.21 -27.38,-16.47 -24.59,-15.74 -21.36,-14.76 -18.13,-13.79 -15.98,-12.96 -13.83,-12.12 -11.35,-11.10 -8.87,-10.08 -6.08,-8.51 -3.30,-6.93 -0.67,-5.91 1.95,-4.88 2.50,-4.57 3.06,-4.27 3.53,-3.84 3.99,-3.41 4.34,-2.88 4.69,-2.35 4.91,-1.76 5.12,-1.16 5.19,-0.53 5.25,0.09 5.17,0.72 5.08,1.35 4.84,1.93 4.61,2.52 4.24,3.04 3.87,3.55 3.39,3.96 2.90,4.38 2.34,4.66 1.77,4.94 1.15,5.09 0.53,5.23 -0.09,5.21 -0.72,5.20 -1.34,5.04 -1.95,4.88 -1.95,4.88 L -1.95,4.88 Z"/></g></svg>