<svg version="1.1" xmlns="http://www.w3.org/2000/svg" viewBox="0 0 502.666748046875 440.6666564941406" width="502.666748046875" height="440.6666564941406" class="excalidraw-svg">
  <!-- svg-source:excalidraw -->
  
  <defs>
    <style class="style-fonts">
      @font-face {
        font-family: "Virgil";
        src: url("https://excalidraw.com/Virgil.woff2");
      }
      @font-face {
        font-family: "Cascadia";
        src: url("https://excalidraw.com/Cascadia.woff2");
      }
      @font-face {
        font-family: "Assistant";
        src: url("https://excalidraw.com/Assistant-Regular.woff2");
      }
    </style>
    
  </defs>
  <rect x="0" y="0" width="502.666748046875" height="440.6666564941406" fill="#ffffff"/><g transform="translate(152.666748046875 76.66665649414062) rotate(0 98.6666259765625 143.6666717529297)" stroke="none"><path fill="#1e1e1e" d="M 3.57,1.86 Q 3.57,1.86 1.11,6.18 -1.35,10.51 -2.44,12.60 -3.54,14.69 -5.48,17.13 -7.43,19.57 -8.29,20.77 -9.15,21.96 -9.55,22.33 -9.95,22.69 -10.43,22.95 -10.90,23.21 -11.43,23.34 -11.95,23.48 -12.49,23.49 -13.03,23.50 -13.56,23.38 -14.09,23.25 -14.57,23.01 -15.05,22.76 -15.46,22.41 -15.87,22.06 -16.18,21.62 -16.50,21.18 -16.70,20.68 -16.90,20.17 -16.97,19.64 -17.04,19.10 -16.99,18.56 -16.93,18.03 -16.74,17.52 -16.56,17.01 -16.26,16.56 -15.96,16.11 -12.29,15.97 -8.63,15.84 -2.15,14.62 4.33,13.40 13.25,10.73 22.16,8.06 41.10,1.05 60.05,-5.95 81.22,-13.31 102.39,-20.68 120.39,-27.03 138.39,-33.38 161.83,-40.49 185.27,-47.59 207.93,-53.29 230.59,-58.98 249.90,-61.98 269.21,-64.98 278.18,-66.05 287.16,-67.12 291.34,-66.86 295.51,-66.60 296.65,-65.97 297.78,-65.33 298.18,-65.25 298.58,-65.17 298.94,-65.00 299.31,-64.82 299.62,-64.57 299.94,-64.31 300.18,-63.99 300.42,-63.67 300.58,-63.29 300.74,-62.92 300.80,-62.52 300.87,-62.12 300.84,-61.72 300.80,-61.32 300.68,-60.93 300.55,-60.55 300.33,-60.21 300.11,-59.86 299.82,-59.58 299.53,-59.30 299.18,-59.10 298.83,-58.90 298.44,-58.79 298.05,-58.67 297.65,-58.66 297.24,-58.64 291.53,-50.80 285.81,-42.96 275.42,-33.23 265.02,-23.50 229.41,-0.87 193.79,21.74 170.08,35.90 146.37,50.06 96.32,73.19 46.26,96.32 19.09,108.62 -8.08,120.91 -39.35,135.52 -70.62,150.13 -88.67,159.38 -106.71,168.63 -116.05,174.26 -125.38,179.88 -129.92,182.84 -134.46,185.79 -135.88,187.28 -137.30,188.76 -137.64,188.93 -137.98,189.10 -138.35,189.18 -138.72,189.26 -139.10,189.25 -139.48,189.24 -139.85,189.14 -140.22,189.04 -140.55,188.85 -140.88,188.67 -141.16,188.41 -141.43,188.15 -141.64,187.83 -141.85,187.51 -141.98,187.15 -142.10,186.79 -142.14,186.42 -142.17,186.04 -142.12,185.66 -142.06,185.29 -141.92,184.93 -141.77,184.58 -141.55,184.28 -141.32,183.97 -141.03,183.72 -140.74,183.48 -137.96,183.87 -135.17,184.26 -129.61,183.71 -124.04,183.15 -116.27,182.40 -108.49,181.65 -90.07,179.24 -71.65,176.83 -58.21,175.42 -44.77,174.02 -23.28,172.85 -1.80,171.69 16.25,172.54 34.30,173.39 49.73,175.88 65.17,178.37 74.82,180.60 84.48,182.82 103.59,192.49 122.71,202.17 135.25,210.53 147.79,218.89 156.63,226.34 165.48,233.78 172.43,242.46 179.38,251.13 183.50,257.75 187.62,264.37 190.22,272.19 192.83,280.02 193.92,284.88 195.01,289.75 195.58,293.61 196.15,297.46 196.40,299.81 196.65,302.16 195.63,306.34 194.61,310.52 194.36,313.49 194.11,316.47 194.02,319.50 193.93,322.54 196.26,327.82 198.60,333.10 200.74,336.33 202.89,339.55 208.19,342.39 213.48,345.23 220.19,346.90 226.90,348.56 233.72,349.31 240.55,350.06 251.46,348.69 262.38,347.31 273.17,345.03 283.96,342.75 293.23,339.52 302.50,336.29 308.36,333.98 314.23,331.66 320.87,326.80 327.51,321.94 330.43,318.68 333.34,315.43 332.15,313.27 330.95,311.12 327.07,309.07 323.19,307.02 322.65,306.60 322.12,306.18 321.75,305.61 321.37,305.04 321.21,304.38 321.04,303.72 321.08,303.04 321.13,302.36 321.40,301.74 321.66,301.11 322.11,300.60 322.56,300.09 323.15,299.75 323.74,299.41 324.41,299.27 325.07,299.14 325.75,299.23 326.42,299.31 327.04,299.61 327.65,299.91 328.13,300.38 328.62,300.86 328.93,301.47 329.23,302.07 329.33,302.75 329.43,303.42 329.31,304.09 329.18,304.76 328.85,305.35 328.52,305.95 328.02,306.41 327.52,306.87 326.90,307.14 326.27,307.41 325.60,307.48 324.92,307.54 324.26,307.38 323.59,307.22 323.02,306.86 322.44,306.50 322.01,305.97 321.58,305.44 321.34,304.81 321.10,304.17 321.08,303.49 321.05,302.81 321.25,302.16 321.44,301.51 321.83,300.95 322.22,300.39 322.77,299.99 323.32,299.59 323.97,299.39 324.62,299.18 325.30,299.19 325.98,299.21 326.62,299.43 327.26,299.66 327.26,299.66 327.26,299.66 330.28,301.52 333.30,303.38 334.86,304.95 336.42,306.53 338.01,309.37 339.60,312.21 338.49,315.52 337.38,318.84 334.02,322.54 330.67,326.25 323.46,331.44 316.25,336.63 310.27,339.02 304.29,341.42 294.70,344.76 285.11,348.11 274.09,350.48 263.07,352.84 251.53,354.29 239.98,355.73 232.74,354.99 225.50,354.26 218.05,352.42 210.59,350.59 204.23,347.01 197.86,343.42 195.10,339.64 192.34,335.86 189.46,329.18 186.58,322.50 186.83,319.03 187.08,315.56 187.65,312.23 188.21,308.91 189.36,303.52 190.51,298.14 190.19,294.51 189.87,290.89 188.85,286.27 187.83,281.66 185.48,274.39 183.13,267.12 179.19,260.77 175.25,254.42 168.65,246.11 162.06,237.81 153.45,230.55 144.85,223.29 132.58,215.09 120.30,206.90 101.77,197.45 83.25,188.00 73.78,185.83 64.31,183.66 49.18,181.22 34.05,178.78 16.27,177.95 -1.50,177.13 -22.84,178.32 -44.18,179.51 -57.54,180.96 -70.91,182.41 -89.40,184.90 -107.89,187.39 -115.71,188.24 -123.53,189.09 -130.41,188.93 -137.30,188.76 -137.64,188.93 -137.98,189.10 -138.35,189.18 -138.72,189.26 -139.10,189.25 -139.48,189.24 -139.85,189.14 -140.22,189.04 -140.55,188.85 -140.88,188.67 -141.16,188.41 -141.43,188.15 -141.64,187.83 -141.85,187.51 -141.98,187.15 -142.10,186.79 -142.14,186.42 -142.17,186.04 -142.12,185.66 -142.06,185.29 -141.92,184.93 -141.77,184.58 -141.55,184.28 -141.33,183.97 -141.03,183.72 -140.74,183.48 -139.04,182.43 -137.34,181.37 -132.73,178.36 -128.11,175.35 -118.62,169.64 -109.13,163.92 -91.00,154.62 -72.87,145.31 -41.58,130.68 -10.28,116.05 16.86,103.75 44.01,91.45 93.80,68.43 143.60,45.41 167.23,31.26 190.86,17.12 226.05,-5.22 261.24,-27.56 271.32,-37.04 281.40,-46.52 289.59,-55.93 297.78,-65.33 298.18,-65.25 298.58,-65.17 298.94,-65.00 299.31,-64.83 299.62,-64.57 299.93,-64.31 300.18,-63.99 300.42,-63.67 300.58,-63.29 300.74,-62.92 300.80,-62.52 300.87,-62.12 300.84,-61.72 300.80,-61.32 300.68,-60.93 300.55,-60.55 300.33,-60.21 300.12,-59.86 299.82,-59.58 299.53,-59.30 299.18,-59.10 298.83,-58.90 298.44,-58.79 298.05,-58.67 297.65,-58.66 297.24,-58.64 295.92,-59.80 294.61,-60.96 291.20,-61.31 287.80,-61.66 278.94,-60.56 270.08,-59.46 251.03,-56.45 231.99,-53.44 209.49,-47.70 187.00,-41.95 163.73,-34.78 140.46,-27.60 122.50,-21.09 104.55,-14.59 83.52,-7.03 62.50,0.51 43.49,7.87 24.47,15.22 15.33,18.38 6.19,21.54 -1.48,21.75 -9.15,21.96 -9.55,22.32 -9.95,22.69 -10.43,22.95 -10.90,23.21 -11.43,23.34 -11.95,23.48 -12.49,23.49 -13.03,23.50 -13.56,23.38 -14.09,23.25 -14.57,23.01 -15.05,22.76 -15.46,22.41 -15.87,22.06 -16.18,21.62 -16.50,21.18 -16.70,20.68 -16.90,20.17 -16.97,19.64 -17.04,19.10 -16.99,18.56 -16.93,18.03 -16.74,17.52 -16.56,17.01 -16.26,16.56 -15.96,16.11 -14.88,15.10 -13.79,14.10 -10.82,10.61 -7.84,7.12 -5.71,2.62 -3.57,-1.86 -3.30,-2.26 -3.02,-2.66 -2.66,-2.99 -2.30,-3.31 -1.87,-3.54 -1.44,-3.77 -0.96,-3.88 -0.49,-4.00 -0.00,-4.00 0.47,-4.00 0.94,-3.89 1.42,-3.77 1.85,-3.55 2.28,-3.32 2.65,-3.00 3.01,-2.68 3.29,-2.28 3.56,-1.88 3.74,-1.42 3.91,-0.97 3.97,-0.49 4.03,-0.00 3.97,0.47 3.92,0.95 3.75,1.41 3.57,1.86 3.57,1.86 L 3.57,1.86 Z"/></g></svg>